<?xml version="1.0" encoding="UTF-8" standalone="no"?><!DOCTYPE svg PUBLIC "-//W3C//DTD SVG 1.1//EN" "http://www.w3.org/Graphics/SVG/1.1/DTD/svg11.dtd"><!-- Generated by graphviz version 5.0.0 (20220707.1540) --><!-- Title: g Pages: 1 --><svg width="637pt" height="116pt" viewBox="0.00 0.00 636.93 116.00" xmlns="http://www.w3.org/2000/svg" xmlns:xlink="http://www.w3.org/1999/xlink"><g id="graph0" class="graph" transform="scale(1 1) rotate(0) translate(4 112)"><title>g</title><polygon fill="white" stroke="transparent" points="-4,4 -4,-112 632.93,-112 632.93,4 -4,4"/><!-- travel2&#45;service --><g id="node1" class="node"><title>travel2&#45;service</title><ellipse fill="none" stroke="black" cx="100.74" cy="-90" rx="79.89" ry="18"/><text text-anchor="middle" x="100.74" y="-86.3" font-family="Times New Roman,serif" font-size="14.00">travel2&#45;service</text></g><!-- admin&#45;travel&#45;service --><g id="node2" class="node"><title>admin&#45;travel&#45;service</title><ellipse fill="none" stroke="black" cx="100.74" cy="-18" rx="100.98" ry="18"/><text text-anchor="middle" x="100.74" y="-14.3" font-family="Times New Roman,serif" font-size="14.00">admin&#45;travel&#45;service</text></g><!-- travel2&#45;service&#45;&gt;admin&#45;travel&#45;service --><g id="edge1" class="edge"><title>travel2&#45;service&#45;&gt;admin&#45;travel&#45;service</title><path fill="none" stroke="black" d="M100.74,-71.7C100.74,-63.98 100.74,-54.71 100.74,-46.11"/><polygon fill="black" stroke="black" points="104.24,-46.1 100.74,-36.1 97.24,-46.1 104.24,-46.1"/></g><!-- route&#45;service --><g id="node3" class="node"><title>route&#45;service</title><ellipse fill="none" stroke="black" cx="318.74" cy="-90" rx="74.99" ry="18"/><text text-anchor="middle" x="318.74" y="-86.3" font-family="Times New Roman,serif" font-size="14.00">route&#45;service</text></g><!-- admin&#45;route&#45;service --><g id="node4" class="node"><title>admin&#45;route&#45;service</title><ellipse fill="none" stroke="black" cx="318.74" cy="-18" rx="99.38" ry="18"/><text text-anchor="middle" x="318.74" y="-14.3" font-family="Times New Roman,serif" font-size="14.00">admin&#45;route&#45;service</text></g><!-- route&#45;service&#45;&gt;admin&#45;route&#45;service --><g id="edge2" class="edge"><title>route&#45;service&#45;&gt;admin&#45;route&#45;service</title><path fill="none" stroke="black" d="M318.74,-71.7C318.74,-63.98 318.74,-54.71 318.74,-46.11"/><polygon fill="black" stroke="black" points="322.24,-46.1 318.74,-36.1 315.24,-46.1 322.24,-46.1"/></g><!-- user&#45;service --><g id="node5" class="node"><title>user&#45;service</title><ellipse fill="none" stroke="black" cx="532.74" cy="-90" rx="71.49" ry="18"/><text text-anchor="middle" x="532.74" y="-86.3" font-family="Times New Roman,serif" font-size="14.00">user&#45;service</text></g><!-- admin&#45;user&#45;service --><g id="node6" class="node"><title>admin&#45;user&#45;service</title><ellipse fill="none" stroke="black" cx="532.74" cy="-18" rx="96.38" ry="18"/><text text-anchor="middle" x="532.74" y="-14.3" font-family="Times New Roman,serif" font-size="14.00">admin&#45;user&#45;service</text></g><!-- user&#45;service&#45;&gt;admin&#45;user&#45;service --><g id="edge3" class="edge"><title>user&#45;service&#45;&gt;admin&#45;user&#45;service</title><path fill="none" stroke="black" d="M532.74,-71.7C532.74,-63.98 532.74,-54.71 532.74,-46.11"/><polygon fill="black" stroke="black" points="536.24,-46.1 532.74,-36.1 529.24,-46.1 536.24,-46.1"/></g></g></svg>